<!-- Generated by IcoMoon.io -->
<svg version="1.1" xmlns="http://www.w3.org/2000/svg" width="24" height="24" viewBox="0 0 24 24">
<title>facebook</title>
<path d="M10.757 2.757c1.125-1.125 2.651-1.757 4.243-1.757h3c0.552 0 1 0.448 1 1v4c0 0.552-0.448 1-1 1h-3v2h3c0.308 0 0.599 0.142 0.788 0.385s0.257 0.559 0.182 0.858l-1 4c-0.111 0.445-0.511 0.758-0.97 0.758h-2v7c0 0.552-0.448 1-1 1h-4c-0.552 0-1-0.448-1-1v-7h-2c-0.552 0-1-0.448-1-1v-4c0-0.552 0.448-1 1-1h2v-2c0-1.591 0.632-3.117 1.757-4.243zM15 3c-1.061 0-2.078 0.421-2.828 1.172s-1.172 1.768-1.172 2.828v3c0 0.552-0.448 1-1 1h-2v2h2c0.552 0 1 0.448 1 1v7h2v-7c0-0.552 0.448-1 1-1h2.219l0.5-2h-2.719c-0.552 0-1-0.448-1-1v-3c0-0.53 0.211-1.039 0.586-1.414s0.884-0.586 1.414-0.586h2v-2h-2z"></path>
</svg>
