<!-- Generated by IcoMoon.io -->
<svg version="1.1" xmlns="http://www.w3.org/2000/svg" width="24" height="24" viewBox="0 0 24 24">
<title>instagram</title>
<path d="M7 3c-2.209 0-4 1.791-4 4v10c0 2.209 1.791 4 4 4h10c2.209 0 4-1.791 4-4v-10c0-2.209-1.791-4-4-4h-10zM1 7c0-3.314 2.686-6 6-6h10c3.314 0 6 2.686 6 6v10c0 3.314-2.686 6-6 6h-10c-3.314 0-6-2.686-6-6v-10z"></path>
<path d="M12.483 8.989c-0.624-0.093-1.262 0.014-1.822 0.305s-1.014 0.75-1.298 1.314c-0.284 0.564-0.382 1.202-0.282 1.825s0.394 1.198 0.841 1.645c0.446 0.446 1.022 0.74 1.645 0.841s1.262 0.001 1.825-0.282c0.564-0.284 1.023-0.738 1.314-1.298s0.397-1.198 0.305-1.822c-0.094-0.637-0.391-1.226-0.846-1.681s-1.045-0.752-1.681-0.846zM9.74 7.519c0.933-0.484 1.996-0.662 3.036-0.508 1.061 0.157 2.043 0.652 2.802 1.41s1.253 1.741 1.41 2.802c0.154 1.040-0.023 2.103-0.508 3.036s-1.251 1.691-2.19 2.163c-0.939 0.473-2.004 0.637-3.042 0.47s-1.998-0.657-2.741-1.401c-0.744-0.744-1.234-1.703-1.401-2.741s-0.003-2.103 0.47-3.042c0.473-0.939 1.23-1.706 2.163-2.19z"></path>
<path d="M16.5 6.5c0-0.552 0.448-1 1-1h0.010c0.552 0 1 0.448 1 1s-0.448 1-1 1h-0.010c-0.552 0-1-0.448-1-1z"></path>
</svg>
