<!-- Generated by IcoMoon.io -->
<svg version="1.1" xmlns="http://www.w3.org/2000/svg" width="24" height="24" viewBox="0 0 24 24">
<title>mail</title>
<path d="M4 5c-0.548 0-1 0.452-1 1v12c0 0.548 0.452 1 1 1h16c0.548 0 1-0.452 1-1v-12c0-0.548-0.452-1-1-1h-16zM1 6c0-1.652 1.348-3 3-3h16c1.652 0 3 1.348 3 3v12c0 1.652-1.348 3-3 3h-16c-1.652 0-3-1.348-3-3v-12z"></path>
<path d="M1.181 5.427c0.317-0.452 0.94-0.562 1.393-0.246l9.427 6.599 9.426-6.599c0.453-0.317 1.076-0.207 1.393 0.246s0.207 1.076-0.246 1.393l-10 7c-0.344 0.241-0.803 0.241-1.147 0l-10-7c-0.452-0.317-0.562-0.94-0.246-1.393z"></path>
</svg>
