<!-- Generated by IcoMoon.io -->
<svg version="1.1" xmlns="http://www.w3.org/2000/svg" width="24" height="24" viewBox="0 0 24 24">
<title>map-pin</title>
<path d="M12 2c-2.122 0-4.157 0.843-5.657 2.343s-2.343 3.535-2.343 5.657c0 3.098 2.016 6.104 4.226 8.437 1.085 1.145 2.173 2.082 2.991 2.733 0.304 0.243 0.57 0.444 0.783 0.602 0.213-0.157 0.479-0.359 0.783-0.602 0.818-0.651 1.906-1.589 2.991-2.733 2.21-2.333 4.226-5.339 4.226-8.437 0-2.122-0.843-4.157-2.343-5.657s-3.535-2.343-5.657-2.343zM12 23c-0.555 0.832-0.555 0.832-0.555 0.832l-0.003-0.002-0.007-0.005-0.023-0.015c-0.020-0.013-0.047-0.032-0.083-0.057-0.071-0.049-0.173-0.121-0.302-0.214-0.257-0.186-0.621-0.457-1.057-0.804-0.869-0.692-2.031-1.693-3.197-2.923-2.29-2.417-4.774-5.911-4.774-9.813 0-2.652 1.054-5.196 2.929-7.071s4.419-2.929 7.071-2.929c2.652 0 5.196 1.054 7.071 2.929s2.929 4.419 2.929 7.071c0 3.902-2.484 7.396-4.774 9.813-1.165 1.23-2.327 2.23-3.197 2.923-0.436 0.347-0.8 0.618-1.057 0.804-0.129 0.093-0.231 0.165-0.302 0.214-0.036 0.025-0.063 0.044-0.083 0.057l-0.023 0.015-0.007 0.005-0.002 0.001c-0 0-0.001 0.001-0.556-0.831zM12 23l0.555 0.832c-0.336 0.224-0.774 0.224-1.11-0l0.555-0.832z"></path>
<path d="M17 10c0-2.761-2.239-5-5-5s-5 2.239-5 5c0 2.761 2.239 5 5 5s5-2.239 5-5zM15 10c0 1.657-1.343 3-3 3s-3-1.343-3-3c0-1.657 1.343-3 3-3s3 1.343 3 3z"></path>
</svg>
