<!-- Generated by IcoMoon.io -->
<svg version="1.1" xmlns="http://www.w3.org/2000/svg" width="24" height="24" viewBox="0 0 24 24">
<title>phone</title>
<path fill="none" stroke-linejoin="round" stroke-linecap="round" stroke-miterlimit="4" stroke-width="2" stroke="#000" d="M22 16.92v3c0.001 0.279-0.056 0.554-0.168 0.809s-0.275 0.484-0.48 0.672c-0.205 0.188-0.447 0.332-0.711 0.421s-0.543 0.122-0.821 0.097c-3.077-0.334-6.033-1.386-8.63-3.070-2.416-1.535-4.465-3.584-6-6-1.69-2.609-2.742-5.579-3.070-8.67-0.025-0.277 0.008-0.555 0.096-0.818s0.231-0.505 0.418-0.71c0.187-0.205 0.415-0.369 0.669-0.481s0.529-0.17 0.806-0.171h3c0.485-0.005 0.956 0.167 1.324 0.484s0.608 0.756 0.676 1.236c0.127 0.96 0.361 1.903 0.7 2.81 0.135 0.358 0.164 0.747 0.084 1.121s-0.265 0.717-0.534 0.989l-1.27 1.27c1.424 2.504 3.496 4.576 6 6l1.27-1.27c0.272-0.269 0.615-0.454 0.989-0.534s0.763-0.051 1.121 0.084c0.907 0.339 1.85 0.573 2.81 0.7 0.486 0.069 0.929 0.313 1.246 0.687s0.486 0.852 0.474 1.342z"></path>
</svg>
