<!-- Generated by IcoMoon.io -->
<svg version="1.1" xmlns="http://www.w3.org/2000/svg" width="24" height="24" viewBox="0 0 24 24">
<title>whatsapp</title>
<path d="M16.6 14c-0.2-0.1-1.5-0.7-1.7-0.8s-0.4-0.1-0.6 0.1c-0.2 0.2-0.6 0.8-0.8 1-0.1 0.2-0.3 0.2-0.5 0.1-0.7-0.3-1.4-0.7-2-1.2-0.5-0.5-1-1.1-1.4-1.7-0.1-0.2 0-0.4 0.1-0.5s0.2-0.3 0.4-0.4c0.1-0.1 0.2-0.3 0.2-0.4 0.1-0.1 0.1-0.3 0-0.4s-0.6-1.3-0.8-1.8c-0.1-0.7-0.3-0.7-0.5-0.7-0.1 0-0.3 0-0.5 0s-0.5 0.2-0.6 0.3c-0.6 0.6-0.9 1.3-0.9 2.1 0.1 0.9 0.4 1.8 1 2.6 1.1 1.6 2.5 2.9 4.2 3.7 0.5 0.2 0.9 0.4 1.4 0.5 0.5 0.2 1 0.2 1.6 0.1 0.7-0.1 1.3-0.6 1.7-1.2 0.2-0.4 0.2-0.8 0.1-1.2 0 0-0.2-0.1-0.4-0.2zM19.1 4.9c-3.9-3.9-10.2-3.9-14.1 0-3.2 3.2-3.8 8.1-1.6 12l-1.4 5.1 5.3-1.4c1.5 0.8 3.1 1.2 4.7 1.2 5.5 0 9.9-4.4 9.9-9.9 0.1-2.6-1-5.1-2.8-7zM16.4 18.9c-1.3 0.8-2.8 1.3-4.4 1.3-1.5 0-2.9-0.4-4.2-1.1l-0.3-0.2-3.1 0.8 0.8-3-0.2-0.3c-2.4-4-1.2-9 2.7-11.5s8.9-1.2 11.3 2.6c2.4 3.9 1.3 9-2.6 11.4z"></path>
</svg>
