<!-- Generated by IcoMoon.io -->
<svg version="1.1" xmlns="http://www.w3.org/2000/svg" width="24" height="24" viewBox="0 0 24 24">
<title>youtube</title>
<path d="M12 3c0 0 0 0 0 1v1l-0.075 0c-0.050 0-0.124 0-0.219 0.001-0.19 0.001-0.463 0.003-0.797 0.006-0.668 0.007-1.575 0.021-2.534 0.050-0.961 0.029-1.966 0.071-2.833 0.134-0.888 0.065-1.548 0.146-1.877 0.233-0.299 0.086-0.57 0.248-0.786 0.471-0.211 0.218-0.363 0.486-0.442 0.778-0.3 1.674-0.446 3.371-0.438 5.071l0 0.011c-0.011 1.707 0.135 3.412 0.434 5.092 0.087 0.278 0.24 0.53 0.447 0.735 0.217 0.215 0.485 0.37 0.78 0.451 0.327 0.087 0.989 0.169 1.881 0.234 0.866 0.063 1.872 0.106 2.833 0.134 0.959 0.029 1.866 0.043 2.534 0.050 0.334 0.003 0.607 0.005 0.797 0.006 0.095 0 0.169 0.001 0.219 0.001h0.151c0.050-0 0.124-0 0.219-0.001 0.19-0.001 0.463-0.003 0.797-0.006 0.668-0.007 1.575-0.021 2.534-0.050 0.961-0.029 1.966-0.071 2.833-0.134 0.888-0.065 1.548-0.146 1.877-0.233 0.299-0.086 0.57-0.248 0.786-0.471 0.211-0.218 0.363-0.486 0.441-0.778 0.297-1.661 0.444-3.345 0.438-5.033v-0.010c0.011-1.713-0.136-3.424-0.438-5.11-0.078-0.293-0.23-0.56-0.441-0.778-0.214-0.221-0.481-0.382-0.776-0.468-0.34-0.080-1.002-0.154-1.881-0.212-0.868-0.058-1.875-0.097-2.836-0.123-0.96-0.026-1.868-0.039-2.536-0.046-0.334-0.003-0.607-0.005-0.797-0.006l-0.295-0.001v-1c0-1-0-1-0-1l0.080 0c0.051 0 0.127 0 0.224 0.001 0.193 0.001 0.47 0.002 0.808 0.006 0.676 0.007 1.596 0.020 2.571 0.046 0.974 0.026 2.010 0.066 2.915 0.127 0.88 0.059 1.714 0.141 2.24 0.269 0.012 0.003 0.023 0.006 0.035 0.009 0.64 0.181 1.221 0.528 1.684 1.005s0.792 1.069 0.954 1.714c0.005 0.022 0.010 0.043 0.014 0.065 0.328 1.818 0.487 3.662 0.476 5.509 0.006 1.819-0.153 3.636-0.476 5.426-0.004 0.022-0.009 0.044-0.014 0.065-0.162 0.645-0.491 1.237-0.954 1.714s-1.044 0.824-1.684 1.005l-0.014 0.004c-0.534 0.143-1.376 0.233-2.255 0.297-0.907 0.066-1.945 0.11-2.919 0.139-0.976 0.029-1.896 0.043-2.572 0.051-0.338 0.004-0.616 0.005-0.809 0.006-0.097 0-0.172 0.001-0.224 0.001l-0.079 0-0.080-0c-0.052-0-0.127-0-0.224-0.001-0.193-0.001-0.471-0.003-0.809-0.006-0.676-0.007-1.596-0.022-2.572-0.051-0.974-0.029-2.011-0.073-2.919-0.139-0.879-0.064-1.721-0.154-2.255-0.297l-0.006-0.001c-0.627-0.172-1.199-0.502-1.661-0.959s-0.798-1.026-0.976-1.651c-0.009-0.032-0.017-0.064-0.022-0.096-0.328-1.818-0.487-3.661-0.476-5.508-0.009-1.833 0.151-3.663 0.476-5.467 0.004-0.022 0.009-0.044 0.014-0.065 0.162-0.645 0.49-1.237 0.954-1.714s1.044-0.824 1.684-1.005l0.014-0.004c0.534-0.143 1.376-0.233 2.255-0.297 0.907-0.066 1.945-0.11 2.919-0.139 0.976-0.029 1.896-0.043 2.572-0.051 0.338-0.004 0.616-0.005 0.809-0.006 0.097-0 0.172-0.001 0.224-0.001l0.080-0z"></path>
<path d="M9.247 7.616c0.308-0.179 0.688-0.181 0.997-0.005l5.75 3.27c0.313 0.178 0.506 0.51 0.506 0.869s-0.193 0.692-0.506 0.869l-5.75 3.27c-0.309 0.176-0.689 0.174-0.997-0.005s-0.497-0.508-0.497-0.864v-6.54c0-0.356 0.189-0.685 0.497-0.864zM10.75 10.199v3.102l2.727-1.551-2.727-1.551z"></path>
</svg>
