<svg aria-hidden="true" style="position: absolute; width: 0; height: 0; overflow: hidden;" version="1.1" xmlns="http://www.w3.org/2000/svg" xmlns:xlink="http://www.w3.org/1999/xlink">
<defs>
<symbol id="icon-airplay" viewBox="0 0 24 24">
<path d="M5 16h-1c-0.276 0-0.525-0.111-0.707-0.293s-0.293-0.431-0.293-0.707v-10c0-0.276 0.111-0.525 0.293-0.707s0.431-0.293 0.707-0.293h16c0.276 0 0.525 0.111 0.707 0.293s0.293 0.431 0.293 0.707v10c0 0.276-0.111 0.525-0.293 0.707s-0.431 0.293-0.707 0.293h-1c-0.552 0-1 0.448-1 1s0.448 1 1 1h1c0.828 0 1.58-0.337 2.121-0.879s0.879-1.293 0.879-2.121v-10c0-0.828-0.337-1.58-0.879-2.121s-1.293-0.879-2.121-0.879h-16c-0.828 0-1.58 0.337-2.121 0.879s-0.879 1.293-0.879 2.121v10c0 0.828 0.337 1.58 0.879 2.121s1.293 0.879 2.121 0.879h1c0.552 0 1-0.448 1-1s-0.448-1-1-1zM12.768 14.36c-0.035-0.043-0.079-0.087-0.128-0.128-0.424-0.354-1.055-0.296-1.408 0.128l-5 6c-0.144 0.172-0.232 0.396-0.232 0.64 0 0.552 0.448 1 1 1h10c0.225 0.001 0.453-0.075 0.64-0.232 0.424-0.354 0.482-0.984 0.128-1.408zM12 16.562l2.865 3.438h-5.73z"></path>
</symbol>
<symbol id="icon-award" viewBox="0 0 24 24">
<path d="M14.986 15.424l0.75 5.652-3.221-1.933c-0.311-0.184-0.703-0.196-1.029 0l-3.221 1.933 0.751-5.651c0.921 0.371 1.929 0.575 2.984 0.575s2.063-0.205 2.986-0.576zM15.332 12.991c-0.058 0.030-0.113 0.065-0.163 0.105-0.92 0.573-2.005 0.904-3.169 0.904-1.657 0-3.156-0.67-4.243-1.757s-1.757-2.586-1.757-4.243 0.67-3.156 1.757-4.243 2.586-1.757 4.243-1.757 3.156 0.67 4.243 1.757 1.757 2.586 1.757 4.243-0.67 3.156-1.757 4.243c-0.278 0.278-0.583 0.529-0.911 0.748zM7.14 14.355l-1.131 8.513c-0.073 0.547 0.312 1.050 0.86 1.123 0.234 0.031 0.461-0.022 0.646-0.134l4.485-2.691 4.486 2.691c0.474 0.284 1.088 0.131 1.372-0.343 0.122-0.203 0.163-0.431 0.134-0.646l-1.13-8.515c0.28-0.215 0.546-0.448 0.795-0.697 1.446-1.446 2.343-3.447 2.343-5.656s-0.897-4.21-2.343-5.657-3.448-2.343-5.657-2.343-4.21 0.897-5.657 2.343-2.343 3.448-2.343 5.657 0.897 4.21 2.343 5.657c0.25 0.25 0.516 0.483 0.796 0.698z"></path>
</symbol>
<symbol id="icon-github" viewBox="0 0 24 24">
<path d="M8.713 18.042c-1.268 0.38-2.060 0.335-2.583 0.17-0.231-0.073-0.431-0.176-0.614-0.302-0.411-0.284-0.727-0.675-1.119-1.172-0.356-0.451-0.85-1.107-1.551-1.476-0.185-0.098-0.386-0.177-0.604-0.232-0.536-0.134-1.079 0.192-1.213 0.728s0.192 1.079 0.728 1.213c0.074 0.023 0.155 0.060 0.155 0.060 0.252 0.133 0.487 0.404 0.914 0.946 0.366 0.464 0.856 1.098 1.553 1.579 0.332 0.229 0.711 0.426 1.149 0.564 1.015 0.321 2.236 0.296 3.76-0.162 0.529-0.159 0.829-0.716 0.67-1.245s-0.716-0.829-1.245-0.67zM17 22v-3.792c0.052-0.684-0.056-1.343-0.292-1.942 0.777-0.171 1.563-0.427 2.297-0.823 2.083-1.124 3.496-3.242 3.496-6.923 0-1.503-0.516-2.887-1.379-3.981 0.355-1.345 0.226-2.726-0.293-3.933-0.122-0.283-0.359-0.482-0.634-0.564-0.357-0.106-1.732-0.309-4.373 1.362-2.273-0.541-4.557-0.509-6.646-0.002-2.639-1.669-4.013-1.466-4.37-1.36-0.296 0.088-0.521 0.3-0.635 0.565-0.554 1.292-0.624 2.672-0.292 3.932-0.93 1.178-1.387 2.601-1.379 4.017 0 3.622 1.389 5.723 3.441 6.859 0.752 0.416 1.56 0.685 2.357 0.867-0.185 0.468-0.286 0.961-0.304 1.456-0.005 0.141-0.003 0.283 0.005 0.424l0.001 3.838c0 0.552 0.448 1 1 1s1-0.448 1-1v-3.87c0-0.021-0.001-0.045-0.002-0.069-0.006-0.084-0.007-0.168-0.004-0.252 0.020-0.568 0.241-1.126 0.665-1.564 0.145-0.149 0.246-0.347 0.274-0.572 0.068-0.548-0.321-1.048-0.869-1.116-0.34-0.042-0.677-0.094-1.006-0.159-0.79-0.156-1.518-0.385-2.147-0.733-1.305-0.723-2.391-2.071-2.41-5.042 0.013-1.241 0.419-2.319 1.224-3.165 0.257-0.273 0.35-0.671 0.212-1.040-0.28-0.748-0.341-1.58-0.14-2.392 0.491 0.107 1.354 0.416 2.647 1.282 0.235 0.157 0.533 0.214 0.825 0.133 1.997-0.557 4.242-0.602 6.47 0.002 0.271 0.073 0.569 0.033 0.818-0.135 1.293-0.866 2.156-1.175 2.647-1.282 0.189 0.766 0.157 1.595-0.141 2.392-0.129 0.352-0.058 0.755 0.213 1.040 0.758 0.795 1.224 1.872 1.224 3.060 0 3.075-1.114 4.445-2.445 5.163-0.623 0.336-1.343 0.555-2.123 0.7-0.322 0.060-0.651 0.106-0.983 0.143-0.21 0.023-0.418 0.114-0.584 0.275-0.397 0.384-0.408 1.017-0.024 1.414 0.067 0.070 0.13 0.143 0.188 0.22 0.34 0.449 0.521 1.015 0.474 1.617 0 0.024-0.001 0.051-0.003 0.078v3.872c0 0.552 0.448 1 1 1s1-0.448 1-1z"></path>
</symbol>
<symbol id="icon-globe" viewBox="0 0 24 24">
<path d="M16.951 11c-0.214-2.69-1.102-5.353-2.674-7.71 1.57 0.409 2.973 1.232 4.087 2.346 1.408 1.408 2.351 3.278 2.581 5.364zM14.279 20.709c1.483-2.226 2.437-4.853 2.669-7.709h3.997c-0.23 2.086-1.173 3.956-2.581 5.364-1.113 1.113-2.516 1.936-4.085 2.345zM7.049 13c0.214 2.69 1.102 5.353 2.674 7.71-1.57-0.409-2.973-1.232-4.087-2.346-1.408-1.408-2.351-3.278-2.581-5.364zM9.721 3.291c-1.482 2.226-2.436 4.853-2.669 7.709h-3.997c0.23-2.086 1.173-3.956 2.581-5.364 1.114-1.113 2.516-1.936 4.085-2.345zM12.004 1c0 0 0 0 0 0-3.044 0.001-5.794 1.233-7.782 3.222-1.99 1.989-3.222 4.741-3.222 7.778s1.232 5.789 3.222 7.778c1.988 1.989 4.738 3.221 7.774 3.222 0 0 0 0 0 0 3.044-0.001 5.793-1.233 7.782-3.222 1.99-1.989 3.222-4.741 3.222-7.778s-1.232-5.789-3.222-7.778c-1.988-1.989-4.738-3.221-7.774-3.222zM14.946 13c-0.252 2.788-1.316 5.36-2.945 7.451-1.729-2.221-2.706-4.818-2.945-7.451zM11.999 3.549c1.729 2.221 2.706 4.818 2.945 7.451h-5.89c0.252-2.788 1.316-5.36 2.945-7.451z"></path>
</symbol>
<symbol id="icon-layers" viewBox="0 0 24 24">
<path d="M12 3.118l7.764 3.882-7.764 3.882-7.764-3.882zM11.553 1.106l-10 5c-0.494 0.247-0.694 0.847-0.447 1.341 0.101 0.203 0.261 0.356 0.447 0.447l10 5c0.292 0.146 0.62 0.136 0.894 0l10-5c0.494-0.247 0.694-0.848 0.447-1.342-0.101-0.202-0.262-0.355-0.447-0.447l-10-5c-0.292-0.146-0.62-0.136-0.894 0zM1.553 17.894l10 5c0.292 0.146 0.62 0.136 0.894 0l10-5c0.494-0.247 0.694-0.848 0.447-1.342s-0.848-0.694-1.342-0.447l-9.552 4.777-9.553-4.776c-0.494-0.247-1.095-0.047-1.342 0.447s-0.047 1.095 0.447 1.342zM1.553 12.894l10 5c0.292 0.146 0.62 0.136 0.894 0l10-5c0.494-0.247 0.694-0.848 0.447-1.342s-0.848-0.694-1.342-0.447l-9.552 4.777-9.553-4.776c-0.494-0.247-1.095-0.047-1.342 0.447s-0.047 1.095 0.447 1.342z"></path>
</symbol>
<symbol id="icon-linkedin" viewBox="0 0 24 24">
<path d="M16 7c-1.933 0-3.684 0.785-4.95 2.050s-2.050 3.017-2.050 4.95v7c0 0.552 0.448 1 1 1h4c0.552 0 1-0.448 1-1v-7c0-0.276 0.111-0.525 0.293-0.707s0.431-0.293 0.707-0.293 0.525 0.111 0.707 0.293 0.293 0.431 0.293 0.707v7c0 0.552 0.448 1 1 1h4c0.552 0 1-0.448 1-1v-7c0-1.933-0.785-3.684-2.050-4.95s-3.017-2.050-4.95-2.050zM16 9c1.381 0 2.63 0.559 3.536 1.464s1.464 2.155 1.464 3.536v6h-2v-6c0-0.828-0.337-1.58-0.879-2.121s-1.293-0.879-2.121-0.879-1.58 0.337-2.121 0.879-0.879 1.293-0.879 2.121v6h-2v-6c0-1.381 0.559-2.63 1.464-3.536s2.155-1.464 3.536-1.464zM2 8c-0.552 0-1 0.448-1 1v12c0 0.552 0.448 1 1 1h4c0.552 0 1-0.448 1-1v-12c0-0.552-0.448-1-1-1zM3 10h2v10h-2zM7 4c0-0.828-0.337-1.58-0.879-2.121s-1.293-0.879-2.121-0.879-1.58 0.337-2.121 0.879-0.879 1.293-0.879 2.121 0.337 1.58 0.879 2.121 1.293 0.879 2.121 0.879 1.58-0.337 2.121-0.879 0.879-1.293 0.879-2.121zM5 4c0 0.276-0.111 0.525-0.293 0.707s-0.431 0.293-0.707 0.293-0.525-0.111-0.707-0.293-0.293-0.431-0.293-0.707 0.111-0.525 0.293-0.707 0.431-0.293 0.707-0.293 0.525 0.111 0.707 0.293 0.293 0.431 0.293 0.707z"></path>
</symbol>
<symbol id="icon-monitor" viewBox="0 0 24 24">
<path d="M12 16h-8c-0.276 0-0.525-0.111-0.707-0.293s-0.293-0.431-0.293-0.707v-10c0-0.276 0.111-0.525 0.293-0.707s0.431-0.293 0.707-0.293h16c0.276 0 0.525 0.111 0.707 0.293s0.293 0.431 0.293 0.707v10c0 0.276-0.111 0.525-0.293 0.707s-0.431 0.293-0.707 0.293zM11 18v2h-3c-0.552 0-1 0.448-1 1s0.448 1 1 1h8c0.552 0 1-0.448 1-1s-0.448-1-1-1h-3v-2h7c0.828 0 1.58-0.337 2.121-0.879s0.879-1.293 0.879-2.121v-10c0-0.828-0.337-1.58-0.879-2.121s-1.293-0.879-2.121-0.879h-16c-0.828 0-1.58 0.337-2.121 0.879s-0.879 1.293-0.879 2.121v10c0 0.828 0.337 1.58 0.879 2.121s1.293 0.879 2.121 0.879z"></path>
</symbol>
<symbol id="icon-phone1" viewBox="0 0 24 24">
<path d="M23 16.92c0.016-0.714-0.236-1.404-0.673-1.943-0.46-0.566-1.129-0.967-1.925-1.080-0.8-0.098-1.695-0.314-2.586-0.646-0.433-0.159-0.893-0.218-1.344-0.174-0.663 0.064-1.307 0.349-1.819 0.855l-0.72 0.72c-1.77-1.117-3.36-2.667-4.583-4.589l0.726-0.726c0.322-0.33 0.563-0.726 0.707-1.156 0.212-0.632 0.214-1.336-0.039-2.011-0.289-0.753-0.518-1.644-0.644-2.595-0.104-0.714-0.456-1.345-0.963-1.804-0.539-0.486-1.256-0.779-2.027-0.771h-2.996c-0.088 0-0.182 0.004-0.273 0.012-0.824 0.075-1.542 0.478-2.033 1.066s-0.758 1.367-0.683 2.199c0.3 3.076 1.365 6.243 3.216 9.102 1.502 2.413 3.648 4.623 6.298 6.306 2.568 1.697 5.684 2.862 9.086 3.231 0.092 0.009 0.191 0.013 0.288 0.013 0.828-0.003 1.578-0.343 2.118-0.887s0.873-1.297 0.87-2.121zM21 16.92v3c0.001 0.28-0.109 0.53-0.29 0.712s-0.429 0.295-0.706 0.296c-3.149-0.336-5.961-1.391-8.263-2.912-2.428-1.543-4.359-3.537-5.702-5.694-1.697-2.62-2.655-5.481-2.924-8.238-0.024-0.268 0.064-0.526 0.229-0.724s0.403-0.33 0.678-0.355l3.088-0.005c0.271-0.003 0.507 0.094 0.687 0.256 0.17 0.154 0.288 0.366 0.323 0.608 0.142 1.072 0.408 2.117 0.757 3.025 0.081 0.216 0.080 0.447 0.010 0.658-0.049 0.145-0.131 0.281-0.242 0.395l-1.262 1.261c-0.324 0.324-0.379 0.814-0.162 1.201 1.584 2.785 3.839 4.957 6.381 6.378 0.397 0.222 0.882 0.144 1.195-0.166l1.27-1.27c0.166-0.164 0.377-0.257 0.598-0.279 0.152-0.015 0.31 0.005 0.459 0.060 1.022 0.381 2.070 0.636 3.034 0.754 0.241 0.034 0.462 0.166 0.615 0.355 0.147 0.181 0.231 0.412 0.226 0.682z"></path>
</symbol>
<symbol id="icon-settings" viewBox="0 0 24 24">
<path d="M16 12c0-1.104-0.449-2.106-1.172-2.828s-1.724-1.172-2.828-1.172-2.106 0.449-2.828 1.172-1.172 1.724-1.172 2.828 0.449 2.106 1.172 2.828 1.724 1.172 2.828 1.172 2.106-0.449 2.828-1.172 1.172-1.724 1.172-2.828zM14 12c0 0.553-0.223 1.051-0.586 1.414s-0.861 0.586-1.414 0.586-1.051-0.223-1.414-0.586-0.586-0.861-0.586-1.414 0.223-1.051 0.586-1.414 0.861-0.586 1.414-0.586 1.051 0.223 1.414 0.586 0.586 0.861 0.586 1.414zM20.315 15.404c0.046-0.105 0.112-0.191 0.192-0.257 0.112-0.092 0.251-0.146 0.403-0.147h0.090c0.828 0 1.58-0.337 2.121-0.879s0.879-1.293 0.879-2.121-0.337-1.58-0.879-2.121-1.293-0.879-2.121-0.879h-0.159c-0.11-0.001-0.215-0.028-0.308-0.076-0.127-0.066-0.23-0.172-0.292-0.312-0.003-0.029-0.004-0.059-0.004-0.089-0.024-0.055-0.040-0.111-0.049-0.168 0.020-0.334 0.077-0.454 0.168-0.547l0.062-0.062c0.585-0.586 0.878-1.356 0.877-2.122s-0.294-1.536-0.881-2.122c-0.586-0.585-1.356-0.878-2.122-0.877s-1.536 0.294-2.12 0.879l-0.046 0.046c-0.083 0.080-0.183 0.136-0.288 0.166-0.14 0.039-0.291 0.032-0.438-0.033-0.101-0.044-0.187-0.11-0.253-0.19-0.092-0.112-0.146-0.251-0.147-0.403v-0.090c0-0.828-0.337-1.58-0.879-2.121s-1.293-0.879-2.121-0.879-1.58 0.337-2.121 0.879-0.879 1.293-0.879 2.121v0.159c-0.001 0.11-0.028 0.215-0.076 0.308-0.066 0.127-0.172 0.23-0.312 0.292-0.029 0.003-0.059 0.004-0.089 0.004-0.055 0.024-0.111 0.040-0.168 0.049-0.335-0.021-0.455-0.078-0.548-0.169l-0.062-0.062c-0.586-0.585-1.355-0.878-2.122-0.878s-1.535 0.294-2.122 0.882c-0.585 0.586-0.878 1.355-0.878 2.122s0.294 1.536 0.879 2.12l0.048 0.047c0.080 0.083 0.136 0.183 0.166 0.288 0.039 0.14 0.032 0.291-0.031 0.434-0.006 0.016-0.013 0.034-0.021 0.052-0.041 0.109-0.108 0.203-0.191 0.275-0.11 0.095-0.25 0.153-0.383 0.156h-0.090c-0.828 0-1.58 0.337-2.121 0.879s-0.879 1.294-0.879 2.122 0.337 1.58 0.879 2.121 1.293 0.879 2.121 0.879h0.159c0.11 0.001 0.215 0.028 0.308 0.076 0.128 0.067 0.233 0.174 0.296 0.321 0.024 0.055 0.040 0.111 0.049 0.168-0.020 0.334-0.077 0.454-0.168 0.547l-0.062 0.062c-0.585 0.586-0.878 1.356-0.877 2.122s0.294 1.536 0.881 2.122c0.586 0.585 1.356 0.878 2.122 0.877s1.536-0.294 2.12-0.879l0.047-0.048c0.083-0.080 0.183-0.136 0.288-0.166 0.14-0.039 0.291-0.032 0.434 0.031 0.016 0.006 0.034 0.013 0.052 0.021 0.109 0.041 0.203 0.108 0.275 0.191 0.095 0.11 0.153 0.25 0.156 0.383v0.092c0 0.828 0.337 1.58 0.879 2.121s1.293 0.879 2.121 0.879 1.58-0.337 2.121-0.879 0.879-1.293 0.879-2.121v-0.159c0.001-0.11 0.028-0.215 0.076-0.308 0.067-0.128 0.174-0.233 0.321-0.296 0.055-0.024 0.111-0.040 0.168-0.049 0.334 0.020 0.454 0.077 0.547 0.168l0.062 0.062c0.586 0.585 1.356 0.878 2.122 0.877s1.536-0.294 2.122-0.881c0.585-0.586 0.878-1.356 0.877-2.122s-0.294-1.536-0.879-2.12l-0.048-0.047c-0.080-0.083-0.136-0.183-0.166-0.288-0.039-0.14-0.032-0.291 0.031-0.434zM18.396 9.302c-0.012-0.201-0.038-0.297-0.076-0.382v0.080c0 0.043 0.003 0.084 0.008 0.125 0.021 0.060 0.043 0.119 0.068 0.177 0.004 0.090 0.005 0.091 0.005 0.092 0.249 0.581 0.684 1.030 1.208 1.303 0.371 0.193 0.785 0.298 1.211 0.303h0.18c0.276 0 0.525 0.111 0.707 0.293s0.293 0.431 0.293 0.707-0.111 0.525-0.293 0.707-0.431 0.293-0.707 0.293h-0.090c-0.637 0.003-1.22 0.228-1.675 0.603-0.323 0.266-0.581 0.607-0.75 0.993-0.257 0.582-0.288 1.21-0.127 1.782 0.119 0.423 0.341 0.814 0.652 1.136l0.072 0.073c0.196 0.196 0.294 0.45 0.294 0.707s-0.097 0.512-0.292 0.707c-0.197 0.197-0.451 0.295-0.709 0.295s-0.512-0.097-0.707-0.292l-0.061-0.061c-0.463-0.453-1.040-0.702-1.632-0.752-0.437-0.037-0.882 0.034-1.293 0.212-0.578 0.248-1.027 0.683-1.3 1.206-0.193 0.371-0.298 0.785-0.303 1.211v0.181c0 0.276-0.111 0.525-0.293 0.707s-0.43 0.292-0.706 0.292-0.525-0.111-0.707-0.293-0.293-0.431-0.293-0.707v-0.090c-0.015-0.66-0.255-1.242-0.644-1.692-0.284-0.328-0.646-0.585-1.058-0.744-0.575-0.247-1.193-0.274-1.756-0.116-0.423 0.119-0.814 0.341-1.136 0.652l-0.073 0.072c-0.196 0.196-0.45 0.294-0.707 0.294s-0.512-0.097-0.707-0.292c-0.197-0.197-0.295-0.451-0.295-0.709s0.097-0.512 0.292-0.707l0.061-0.061c0.453-0.463 0.702-1.040 0.752-1.632 0.037-0.437-0.034-0.882-0.212-1.293-0.248-0.578-0.683-1.027-1.206-1.3-0.371-0.193-0.785-0.298-1.211-0.303l-0.18 0.001c-0.276 0-0.525-0.111-0.707-0.293s-0.293-0.431-0.293-0.707 0.111-0.525 0.293-0.707 0.431-0.293 0.707-0.293h0.090c0.66-0.015 1.242-0.255 1.692-0.644 0.328-0.284 0.585-0.646 0.744-1.058 0.247-0.575 0.274-1.193 0.116-1.756-0.119-0.423-0.341-0.814-0.652-1.136l-0.073-0.073c-0.196-0.196-0.294-0.45-0.294-0.707s0.097-0.512 0.292-0.707c0.197-0.197 0.451-0.295 0.709-0.295s0.512 0.097 0.707 0.292l0.061 0.061c0.463 0.453 1.040 0.702 1.632 0.752 0.37 0.032 0.745-0.014 1.101-0.137 0.096-0.012 0.186-0.036 0.266-0.072-0.031 0.001-0.061 0.003-0.089 0.004-0.201 0.012-0.297 0.038-0.382 0.076h0.080c0.043 0 0.084-0.003 0.125-0.008 0.060-0.021 0.119-0.043 0.177-0.068 0.090-0.004 0.091-0.005 0.092-0.005 0.581-0.249 1.030-0.684 1.303-1.208 0.193-0.37 0.298-0.785 0.303-1.21v-0.181c0-0.276 0.111-0.525 0.293-0.707s0.431-0.293 0.707-0.293 0.525 0.111 0.707 0.293 0.293 0.431 0.293 0.707v0.090c0.003 0.637 0.228 1.22 0.603 1.675 0.266 0.323 0.607 0.581 0.996 0.751 0.578 0.255 1.206 0.286 1.778 0.125 0.423-0.119 0.814-0.341 1.136-0.652l0.073-0.072c0.196-0.196 0.45-0.294 0.707-0.294s0.512 0.097 0.707 0.292c0.197 0.197 0.295 0.451 0.295 0.709s-0.097 0.512-0.292 0.707l-0.061 0.061c-0.453 0.463-0.702 1.040-0.752 1.632-0.032 0.37 0.014 0.745 0.137 1.101 0.012 0.095 0.037 0.185 0.072 0.266-0.001-0.032-0.002-0.062-0.004-0.089z"></path>
</symbol>
<symbol id="icon-zap" viewBox="0 0 24 24">
<path d="M11.585 5.26l-0.577 4.616c0.033 0.716 0.465 1.124 0.992 1.124h6.865l-6.45 7.74 0.577-4.616c-0.033-0.716-0.465-1.124-0.992-1.124h-6.865zM12.232 1.36l-10 12c-0.354 0.424-0.296 1.055 0.128 1.408 0.187 0.157 0.415 0.233 0.64 0.232h7.867l-0.859 6.876c-0.069 0.548 0.32 1.048 0.868 1.116 0.349 0.044 0.678-0.098 0.892-0.352l10-12c0.354-0.424 0.296-1.055-0.128-1.408-0.187-0.157-0.415-0.233-0.64-0.232h-7.867l0.859-6.876c0.069-0.548-0.32-1.048-0.868-1.116-0.349-0.044-0.678 0.098-0.892 0.352z"></path>
</symbol>
<symbol id="icon-close" viewBox="0 0 24 24">
<path d="M18.707 5.293c0.39 0.391 0.39 1.024 0 1.414l-12 12c-0.391 0.39-1.024 0.39-1.414 0s-0.391-1.024 0-1.414l12-12c0.39-0.391 1.024-0.391 1.414 0z"></path>
<path d="M5.293 5.293c0.391-0.391 1.024-0.391 1.414 0l12 12c0.39 0.39 0.39 1.024 0 1.414s-1.024 0.39-1.414 0l-12-12c-0.391-0.391-0.391-1.024 0-1.414z"></path>
</symbol>
<symbol id="icon-facebook" viewBox="0 0 24 24">
<path d="M10.757 2.757c1.125-1.125 2.651-1.757 4.243-1.757h3c0.552 0 1 0.448 1 1v4c0 0.552-0.448 1-1 1h-3v2h3c0.308 0 0.599 0.142 0.788 0.385s0.257 0.559 0.182 0.858l-1 4c-0.111 0.445-0.511 0.758-0.97 0.758h-2v7c0 0.552-0.448 1-1 1h-4c-0.552 0-1-0.448-1-1v-7h-2c-0.552 0-1-0.448-1-1v-4c0-0.552 0.448-1 1-1h2v-2c0-1.591 0.632-3.117 1.757-4.243zM15 3c-1.061 0-2.078 0.421-2.828 1.172s-1.172 1.768-1.172 2.828v3c0 0.552-0.448 1-1 1h-2v2h2c0.552 0 1 0.448 1 1v7h2v-7c0-0.552 0.448-1 1-1h2.219l0.5-2h-2.719c-0.552 0-1-0.448-1-1v-3c0-0.53 0.211-1.039 0.586-1.414s0.884-0.586 1.414-0.586h2v-2h-2z"></path>
</symbol>
<symbol id="icon-instagram" viewBox="0 0 24 24">
<path d="M7 3c-2.209 0-4 1.791-4 4v10c0 2.209 1.791 4 4 4h10c2.209 0 4-1.791 4-4v-10c0-2.209-1.791-4-4-4h-10zM1 7c0-3.314 2.686-6 6-6h10c3.314 0 6 2.686 6 6v10c0 3.314-2.686 6-6 6h-10c-3.314 0-6-2.686-6-6v-10z"></path>
<path d="M12.483 8.989c-0.624-0.093-1.262 0.014-1.822 0.305s-1.014 0.75-1.298 1.314c-0.284 0.564-0.382 1.202-0.282 1.825s0.394 1.198 0.841 1.645c0.446 0.446 1.022 0.74 1.645 0.841s1.262 0.001 1.825-0.282c0.564-0.284 1.023-0.738 1.314-1.298s0.397-1.198 0.305-1.822c-0.094-0.637-0.391-1.226-0.846-1.681s-1.045-0.752-1.681-0.846zM9.74 7.519c0.933-0.484 1.996-0.662 3.036-0.508 1.061 0.157 2.043 0.652 2.802 1.41s1.253 1.741 1.41 2.802c0.154 1.040-0.023 2.103-0.508 3.036s-1.251 1.691-2.19 2.163c-0.939 0.473-2.004 0.637-3.042 0.47s-1.998-0.657-2.741-1.401c-0.744-0.744-1.234-1.703-1.401-2.741s-0.003-2.103 0.47-3.042c0.473-0.939 1.23-1.706 2.163-2.19z"></path>
<path d="M16.5 6.5c0-0.552 0.448-1 1-1h0.010c0.552 0 1 0.448 1 1s-0.448 1-1 1h-0.010c-0.552 0-1-0.448-1-1z"></path>
</symbol>
<symbol id="icon-mail" viewBox="0 0 24 24">
<path d="M4 5c-0.548 0-1 0.452-1 1v12c0 0.548 0.452 1 1 1h16c0.548 0 1-0.452 1-1v-12c0-0.548-0.452-1-1-1h-16zM1 6c0-1.652 1.348-3 3-3h16c1.652 0 3 1.348 3 3v12c0 1.652-1.348 3-3 3h-16c-1.652 0-3-1.348-3-3v-12z"></path>
<path d="M1.181 5.427c0.317-0.452 0.94-0.562 1.393-0.246l9.427 6.599 9.426-6.599c0.453-0.317 1.076-0.207 1.393 0.246s0.207 1.076-0.246 1.393l-10 7c-0.344 0.241-0.803 0.241-1.147 0l-10-7c-0.452-0.317-0.562-0.94-0.246-1.393z"></path>
</symbol>
<symbol id="icon-map-pin" viewBox="0 0 24 24">
<path d="M12 2c-2.122 0-4.157 0.843-5.657 2.343s-2.343 3.535-2.343 5.657c0 3.098 2.016 6.104 4.226 8.437 1.085 1.145 2.173 2.082 2.991 2.733 0.304 0.243 0.57 0.444 0.783 0.602 0.213-0.157 0.479-0.359 0.783-0.602 0.818-0.651 1.906-1.589 2.991-2.733 2.21-2.333 4.226-5.339 4.226-8.437 0-2.122-0.843-4.157-2.343-5.657s-3.535-2.343-5.657-2.343zM12 23c-0.555 0.832-0.555 0.832-0.555 0.832l-0.003-0.002-0.007-0.005-0.023-0.015c-0.020-0.013-0.047-0.032-0.083-0.057-0.071-0.049-0.173-0.121-0.302-0.214-0.257-0.186-0.621-0.457-1.057-0.804-0.869-0.692-2.031-1.693-3.197-2.923-2.29-2.417-4.774-5.911-4.774-9.813 0-2.652 1.054-5.196 2.929-7.071s4.419-2.929 7.071-2.929c2.652 0 5.196 1.054 7.071 2.929s2.929 4.419 2.929 7.071c0 3.902-2.484 7.396-4.774 9.813-1.165 1.23-2.327 2.23-3.197 2.923-0.436 0.347-0.8 0.618-1.057 0.804-0.129 0.093-0.231 0.165-0.302 0.214-0.036 0.025-0.063 0.044-0.083 0.057l-0.023 0.015-0.007 0.005-0.002 0.001c-0 0-0.001 0.001-0.556-0.831zM12 23l0.555 0.832c-0.336 0.224-0.774 0.224-1.11-0l0.555-0.832z"></path>
<path d="M17 10c0-2.761-2.239-5-5-5s-5 2.239-5 5c0 2.761 2.239 5 5 5s5-2.239 5-5zM15 10c0 1.657-1.343 3-3 3s-3-1.343-3-3c0-1.657 1.343-3 3-3s3 1.343 3 3z"></path>
</symbol>
<symbol id="icon-menu" viewBox="0 0 24 24">
<path d="M2 12c0-0.552 0.448-1 1-1h18c0.552 0 1 0.448 1 1s-0.448 1-1 1h-18c-0.552 0-1-0.448-1-1z"></path>
<path d="M2 6c0-0.552 0.448-1 1-1h18c0.552 0 1 0.448 1 1s-0.448 1-1 1h-18c-0.552 0-1-0.448-1-1z"></path>
<path d="M2 18c0-0.552 0.448-1 1-1h18c0.552 0 1 0.448 1 1s-0.448 1-1 1h-18c-0.552 0-1-0.448-1-1z"></path>
</symbol>
<symbol id="icon-phone" viewBox="0 0 24 24">
<path stroke-linejoin="round" stroke-linecap="round" stroke-miterlimit="4" stroke-width="2" d="M22 16.92v3c0.001 0.279-0.056 0.554-0.168 0.809s-0.275 0.484-0.48 0.672c-0.205 0.188-0.447 0.332-0.711 0.421s-0.543 0.122-0.821 0.097c-3.077-0.334-6.033-1.386-8.63-3.070-2.416-1.535-4.465-3.584-6-6-1.69-2.609-2.742-5.579-3.070-8.67-0.025-0.277 0.008-0.555 0.096-0.818s0.231-0.505 0.418-0.71c0.187-0.205 0.415-0.369 0.669-0.481s0.529-0.17 0.806-0.171h3c0.485-0.005 0.956 0.167 1.324 0.484s0.608 0.756 0.676 1.236c0.127 0.96 0.361 1.903 0.7 2.81 0.135 0.358 0.164 0.747 0.084 1.121s-0.265 0.717-0.534 0.989l-1.27 1.27c1.424 2.504 3.496 4.576 6 6l1.27-1.27c0.272-0.269 0.615-0.454 0.989-0.534s0.763-0.051 1.121 0.084c0.907 0.339 1.85 0.573 2.81 0.7 0.486 0.069 0.929 0.313 1.246 0.687s0.486 0.852 0.474 1.342z"></path>
</symbol>
<symbol id="icon-whatsapp" viewBox="0 0 24 24">
<path d="M16.6 14c-0.2-0.1-1.5-0.7-1.7-0.8s-0.4-0.1-0.6 0.1c-0.2 0.2-0.6 0.8-0.8 1-0.1 0.2-0.3 0.2-0.5 0.1-0.7-0.3-1.4-0.7-2-1.2-0.5-0.5-1-1.1-1.4-1.7-0.1-0.2 0-0.4 0.1-0.5s0.2-0.3 0.4-0.4c0.1-0.1 0.2-0.3 0.2-0.4 0.1-0.1 0.1-0.3 0-0.4s-0.6-1.3-0.8-1.8c-0.1-0.7-0.3-0.7-0.5-0.7-0.1 0-0.3 0-0.5 0s-0.5 0.2-0.6 0.3c-0.6 0.6-0.9 1.3-0.9 2.1 0.1 0.9 0.4 1.8 1 2.6 1.1 1.6 2.5 2.9 4.2 3.7 0.5 0.2 0.9 0.4 1.4 0.5 0.5 0.2 1 0.2 1.6 0.1 0.7-0.1 1.3-0.6 1.7-1.2 0.2-0.4 0.2-0.8 0.1-1.2 0 0-0.2-0.1-0.4-0.2zM19.1 4.9c-3.9-3.9-10.2-3.9-14.1 0-3.2 3.2-3.8 8.1-1.6 12l-1.4 5.1 5.3-1.4c1.5 0.8 3.1 1.2 4.7 1.2 5.5 0 9.9-4.4 9.9-9.9 0.1-2.6-1-5.1-2.8-7zM16.4 18.9c-1.3 0.8-2.8 1.3-4.4 1.3-1.5 0-2.9-0.4-4.2-1.1l-0.3-0.2-3.1 0.8 0.8-3-0.2-0.3c-2.4-4-1.2-9 2.7-11.5s8.9-1.2 11.3 2.6c2.4 3.9 1.3 9-2.6 11.4z"></path>
</symbol>
<symbol id="icon-youtube" viewBox="0 0 24 24">
<path d="M12 3c0 0 0 0 0 1v1l-0.075 0c-0.050 0-0.124 0-0.219 0.001-0.19 0.001-0.463 0.003-0.797 0.006-0.668 0.007-1.575 0.021-2.534 0.050-0.961 0.029-1.966 0.071-2.833 0.134-0.888 0.065-1.548 0.146-1.877 0.233-0.299 0.086-0.57 0.248-0.786 0.471-0.211 0.218-0.363 0.486-0.442 0.778-0.3 1.674-0.446 3.371-0.438 5.071l0 0.011c-0.011 1.707 0.135 3.412 0.434 5.092 0.087 0.278 0.24 0.53 0.447 0.735 0.217 0.215 0.485 0.37 0.78 0.451 0.327 0.087 0.989 0.169 1.881 0.234 0.866 0.063 1.872 0.106 2.833 0.134 0.959 0.029 1.866 0.043 2.534 0.050 0.334 0.003 0.607 0.005 0.797 0.006 0.095 0 0.169 0.001 0.219 0.001h0.151c0.050-0 0.124-0 0.219-0.001 0.19-0.001 0.463-0.003 0.797-0.006 0.668-0.007 1.575-0.021 2.534-0.050 0.961-0.029 1.966-0.071 2.833-0.134 0.888-0.065 1.548-0.146 1.877-0.233 0.299-0.086 0.57-0.248 0.786-0.471 0.211-0.218 0.363-0.486 0.441-0.778 0.297-1.661 0.444-3.345 0.438-5.033v-0.010c0.011-1.713-0.136-3.424-0.438-5.11-0.078-0.293-0.23-0.56-0.441-0.778-0.214-0.221-0.481-0.382-0.776-0.468-0.34-0.080-1.002-0.154-1.881-0.212-0.868-0.058-1.875-0.097-2.836-0.123-0.96-0.026-1.868-0.039-2.536-0.046-0.334-0.003-0.607-0.005-0.797-0.006l-0.295-0.001v-1c0-1-0-1-0-1l0.080 0c0.051 0 0.127 0 0.224 0.001 0.193 0.001 0.47 0.002 0.808 0.006 0.676 0.007 1.596 0.020 2.571 0.046 0.974 0.026 2.010 0.066 2.915 0.127 0.88 0.059 1.714 0.141 2.24 0.269 0.012 0.003 0.023 0.006 0.035 0.009 0.64 0.181 1.221 0.528 1.684 1.005s0.792 1.069 0.954 1.714c0.005 0.022 0.010 0.043 0.014 0.065 0.328 1.818 0.487 3.662 0.476 5.509 0.006 1.819-0.153 3.636-0.476 5.426-0.004 0.022-0.009 0.044-0.014 0.065-0.162 0.645-0.491 1.237-0.954 1.714s-1.044 0.824-1.684 1.005l-0.014 0.004c-0.534 0.143-1.376 0.233-2.255 0.297-0.907 0.066-1.945 0.11-2.919 0.139-0.976 0.029-1.896 0.043-2.572 0.051-0.338 0.004-0.616 0.005-0.809 0.006-0.097 0-0.172 0.001-0.224 0.001l-0.079 0-0.080-0c-0.052-0-0.127-0-0.224-0.001-0.193-0.001-0.471-0.003-0.809-0.006-0.676-0.007-1.596-0.022-2.572-0.051-0.974-0.029-2.011-0.073-2.919-0.139-0.879-0.064-1.721-0.154-2.255-0.297l-0.006-0.001c-0.627-0.172-1.199-0.502-1.661-0.959s-0.798-1.026-0.976-1.651c-0.009-0.032-0.017-0.064-0.022-0.096-0.328-1.818-0.487-3.661-0.476-5.508-0.009-1.833 0.151-3.663 0.476-5.467 0.004-0.022 0.009-0.044 0.014-0.065 0.162-0.645 0.49-1.237 0.954-1.714s1.044-0.824 1.684-1.005l0.014-0.004c0.534-0.143 1.376-0.233 2.255-0.297 0.907-0.066 1.945-0.11 2.919-0.139 0.976-0.029 1.896-0.043 2.572-0.051 0.338-0.004 0.616-0.005 0.809-0.006 0.097-0 0.172-0.001 0.224-0.001l0.080-0z"></path>
<path d="M9.247 7.616c0.308-0.179 0.688-0.181 0.997-0.005l5.75 3.27c0.313 0.178 0.506 0.51 0.506 0.869s-0.193 0.692-0.506 0.869l-5.75 3.27c-0.309 0.176-0.689 0.174-0.997-0.005s-0.497-0.508-0.497-0.864v-6.54c0-0.356 0.189-0.685 0.497-0.864zM10.75 10.199v3.102l2.727-1.551-2.727-1.551z"></path>
</symbol>
</defs>
</svg>
